<svg width="50" height="50" fill="none" xmlns="http://www.w3.org/2000/svg"><path d="M45.928 20.241L39.311 1.396a2.088 2.088 0 00-3.941 0l-6.618 18.845a8.997 8.997 0 001.162 8.28 8.997 8.997 0 007.426 3.838 9 9 0 007.427-3.839 8.997 8.997 0 001.161-8.279zm-4.569 5.864a4.869 4.869 0 01-4.019 2.078 4.868 4.868 0 01-4.018-2.078 4.87 4.87 0 01-.63-4.48L37.34 8.391l4.648 13.234a4.87 4.87 0 01-.629 4.48zm-17.888-2.317a2.088 2.088 0 00-3.94 0l-5.502 15.668a7.932 7.932 0 001.01 7.203A7.932 7.932 0 0021.502 50a7.932 7.932 0 006.462-3.34 7.932 7.932 0 001.01-7.203l-5.502-15.669zm1.084 20.457a3.7 3.7 0 01-3.054 1.578 3.7 3.7 0 01-3.054-1.578 3.7 3.7 0 01-.478-3.405L21.5 30.782l3.532 10.058a3.699 3.699 0 01-.478 3.404zm-9.42-22.352a6.392 6.392 0 00.815-5.805L11.898 4.551a2.088 2.088 0 00-3.94 0L3.906 16.088a6.392 6.392 0 00.815 5.805 6.392 6.392 0 005.207 2.692 6.392 6.392 0 005.207-2.692zm-3.408-2.415a2.18 2.18 0 01-1.8.93 2.18 2.18 0 01-1.799-.93 2.18 2.18 0 01-.281-2.006l2.08-5.927 2.082 5.927a2.18 2.18 0 01-.282 2.006z" fill="#fff"/></svg>