<svg width="49" height="49" fill="none" xmlns="http://www.w3.org/2000/svg"><path d="M32.667 27.62V8.166a8.167 8.167 0 10-16.334 0v19.452a12.22 12.22 0 00-4.083 9.131C12.25 43.516 17.735 49 24.5 49s12.25-5.484 12.25-12.25c0-3.628-1.577-6.888-4.083-9.13zM24.5 44.916a8.167 8.167 0 01-8.167-8.167c0-2.358 1-4.545 2.724-6.088l1.36-1.217V8.167a4.083 4.083 0 018.166 0v21.277l1.36 1.218a8.135 8.135 0 012.724 6.088 8.167 8.167 0 01-8.167 8.167z" fill="#fff"/><path d="M27 10h-5v31h5V10z" fill="#fff"/><path d="M24.5 42.875a6.125 6.125 0 100-12.25 6.125 6.125 0 000 12.25z" fill="#fff"/></svg>