<svg width="49" height="49" fill="none" xmlns="http://www.w3.org/2000/svg"><path d="M32.417 27.62V8.166a8.167 8.167 0 10-16.334 0v19.452A12.22 12.22 0 0012 36.75C12 43.516 17.485 49 24.25 49S36.5 43.516 36.5 36.75c0-3.628-1.577-6.888-4.083-9.13zM24.25 44.916a8.167 8.167 0 01-8.167-8.167c0-2.358 1-4.545 2.724-6.088l1.36-1.217V8.167a4.083 4.083 0 018.166 0v21.277l1.36 1.218a8.135 8.135 0 012.724 6.088 8.167 8.167 0 01-8.167 8.167z" fill="#fff"/><path d="M27 24h-5v17h5V24z" fill="#fff"/><path d="M24.5 42.875a6.125 6.125 0 100-12.25 6.125 6.125 0 000 12.25z" fill="#fff"/></svg>