<svg width="53" height="53" fill="none" xmlns="http://www.w3.org/2000/svg"><path d="M45.429 13.25c-4.176 0-7.572 3.397-7.572 7.571a1.892 1.892 0 103.786 0 3.79 3.79 0 013.786-3.785 3.79 3.79 0 013.785 3.785 3.79 3.79 0 01-3.785 3.786H2.043a1.892 1.892 0 100 3.786h43.386c4.175 0 7.571-3.397 7.571-7.572 0-4.174-3.396-7.571-7.571-7.571z" fill="#fff"/><path d="M26.5 5.679c-4.176 0-7.571 3.396-7.571 7.571a1.892 1.892 0 103.785 0A3.79 3.79 0 0126.5 9.464a3.79 3.79 0 013.786 3.786 3.79 3.79 0 01-3.786 3.786H1.893a1.892 1.892 0 100 3.785H26.5c4.176 0 7.571-3.396 7.571-7.571S30.676 5.679 26.5 5.679zm0 26.5H1.893a1.892 1.892 0 100 3.785H26.5a3.79 3.79 0 013.786 3.786 3.79 3.79 0 01-3.786 3.786 3.79 3.79 0 01-3.786-3.786 1.892 1.892 0 10-3.785 0c0 4.175 3.395 7.571 7.571 7.571s7.571-3.396 7.571-7.571-3.395-7.571-7.571-7.571z" fill="#fff"/></svg>